<svg width="778" height="907" viewBox="0 0 778 907" fill="none" xmlns="http://www.w3.org/2000/svg">
<path d="M573.194 364.708L425.793 343.688C395.113 338.949 366.192 317.034 359.725 286.96L322.963 106.243C322.744 105.322 321.835 104.751 320.926 104.967L298.925 110.213C297.995 110.434 297.441 111.354 297.683 112.27L346.147 289.038C353.949 318.817 338.021 351.401 312.779 369.472L184.069 456.318C156.886 475.778 203.695 671.533 236.758 676.445L399.543 706.893C429.449 711.329 450.991 722.233 458.162 751.327L458.324 752.007L472.592 797.024C472.801 797.902 473.727 798.446 474.613 798.234C475.499 798.023 476.063 797.147 475.871 796.243L468.334 749.111C461.475 719.849 475.772 700.263 500.538 682.746L625.268 583.823C652.558 564.522 606.277 369.801 573.238 364.697L573.194 364.708Z" stroke="#F4F4F4" stroke-width="1.035" stroke-miterlimit="10" stroke-dasharray="6.21 6.21"/>
<g filter="url(#filter0_d_1422_8398)">
<path d="M569.687 523.578L501.929 488.932C480.109 477.775 460.444 462.831 443.849 444.797L410.874 408.964C387.77 388.765 367.813 327.037 361.34 296.971L322.173 106.435C321.953 105.514 321.052 104.941 320.153 105.155L298.379 110.346C297.458 110.566 296.912 111.484 297.153 112.399L348.162 300.113C355.955 329.887 365.204 396.539 355.035 423.033L341.259 470.252C334.568 493.186 323.958 514.789 309.897 534.104L263.772 597.467C256.261 607.086 251.817 618.721 251.55 630.295C250.681 667.968 302.022 672.636 339.456 668.307L343.82 667.802C367.44 665.07 392.755 664.782 411.521 679.383C436.525 698.839 452.314 730.208 457.524 751.354L457.686 752.034L471.917 797.051C472.126 797.928 473.044 798.474 473.922 798.265C474.799 798.055 475.355 797.181 475.163 796.277L467.592 749.163C460.733 719.907 467.979 656.925 506.651 633.294L585.608 590.363C612.588 571.139 599.83 533.773 569.731 523.568L569.687 523.578Z" fill="url(#paint0_linear_1422_8398)" shape-rendering="crispEdges"/>
<path d="M569.687 523.578L501.929 488.932C480.109 477.775 460.444 462.831 443.849 444.797L410.874 408.964C387.77 388.765 367.813 327.037 361.34 296.971L322.173 106.435C321.953 105.514 321.052 104.941 320.153 105.155L298.379 110.346C297.458 110.566 296.912 111.484 297.153 112.399L348.162 300.113C355.955 329.887 365.204 396.539 355.035 423.033L341.259 470.252C334.568 493.186 323.958 514.789 309.897 534.104L263.772 597.467C256.261 607.086 251.817 618.721 251.55 630.295C250.681 667.968 302.022 672.636 339.456 668.307L343.82 667.802C367.44 665.07 392.755 664.782 411.521 679.383C436.525 698.839 452.314 730.208 457.524 751.354L457.686 752.034L471.917 797.051C472.126 797.928 473.044 798.474 473.922 798.265C474.799 798.055 475.355 797.181 475.163 796.277L467.592 749.163C460.733 719.907 467.979 656.925 506.651 633.294L585.608 590.363C612.588 571.139 599.83 533.773 569.731 523.568L569.687 523.578Z" stroke="#5F5F5F" stroke-width="0.414" stroke-miterlimit="10" shape-rendering="crispEdges"/>
</g>
<path d="M520.014 600.641L571.269 575.842L527.864 601.358L514.005 615.65L505.042 631.618L501.852 641.903L499.007 649.899L453.391 665.251L446.564 659.306L440.057 654.346L421.468 645.689L391.52 645.618L421.693 638L458.609 626.016L491.44 613.182L520.014 600.641Z" fill="url(#paint1_radial_1422_8398)" fill-opacity="0.9"/>
<path d="M494.715 523.134L582.358 471.441L598.378 474.117L609.541 481.449L619.894 492.423L565.203 525.936C547.567 536.743 529.146 546.213 510.094 554.267L413.769 594.987L269.535 628.081L271.48 617.339L286.143 595.013L326.775 588.16L399.957 566.483L494.715 523.134Z" fill="url(#paint2_linear_1422_8398)" fill-opacity="0.04"/>
<path d="M456.241 843.456L455.362 834.934L460.334 833.569L460.437 834.597L456.613 835.647L456.871 838.059L459.88 837.233L459.981 838.216L456.973 839.042L457.288 842.112L461.216 841.034L461.318 842.062L456.241 843.456ZM465.472 841.09C464.908 841.245 464.375 841.279 463.871 841.192C463.373 841.097 462.942 840.889 462.577 840.57C462.219 840.249 461.968 839.824 461.823 839.294L462.814 838.73C462.967 839.287 463.275 839.701 463.738 839.971C464.2 840.233 464.727 840.283 465.319 840.121C465.82 839.983 466.182 839.745 466.403 839.407C466.632 839.067 466.694 838.706 466.589 838.323C466.516 838.058 466.385 837.854 466.196 837.712C466.012 837.56 465.794 837.448 465.542 837.375C465.29 837.301 465.031 837.245 464.765 837.206L464.177 837.109C463.846 837.05 463.521 836.971 463.202 836.871C462.887 836.763 462.61 836.599 462.371 836.38C462.131 836.162 461.956 835.854 461.847 835.457C461.729 835.025 461.727 834.61 461.842 834.211C461.956 833.806 462.176 833.449 462.504 833.142C462.836 832.826 463.264 832.596 463.786 832.453C464.525 832.25 465.168 832.291 465.718 832.574C466.273 832.849 466.651 833.31 466.851 833.959L465.872 834.565C465.747 834.113 465.513 833.776 465.168 833.557C464.83 833.335 464.424 833.289 463.95 833.419C463.505 833.541 463.196 833.753 463.024 834.055C462.859 834.355 462.822 834.669 462.912 834.996C463 835.316 463.176 835.549 463.44 835.693C463.703 835.831 464.003 835.928 464.341 835.986L464.929 836.082C465.289 836.141 465.655 836.216 466.025 836.31C466.4 836.394 466.735 836.549 467.029 836.775C467.323 837.002 467.534 837.348 467.663 837.815C467.791 838.281 467.788 838.735 467.654 839.176C467.528 839.615 467.279 840.006 466.909 840.347C466.536 840.682 466.057 840.929 465.472 841.09ZM472.189 839.246C471.583 839.412 471.022 839.416 470.507 839.258C469.997 839.091 469.551 838.775 469.169 838.311C468.784 837.84 468.491 837.235 468.288 836.497C468.153 836.002 468.072 835.504 468.046 835.002C468.026 834.491 468.067 834 468.17 833.53C468.271 833.053 468.439 832.613 468.674 832.212C468.913 831.802 469.224 831.447 469.606 831.147C469.988 830.848 470.45 830.623 470.994 830.474C471.572 830.315 472.102 830.282 472.584 830.374C473.073 830.465 473.496 830.667 473.852 830.981C474.215 831.294 474.485 831.706 474.663 832.219L473.612 832.811C473.399 832.225 473.083 831.81 472.664 831.566C472.245 831.321 471.746 831.278 471.168 831.437C470.757 831.55 470.422 831.732 470.161 831.983C469.899 832.228 469.698 832.519 469.558 832.857C469.419 833.194 469.327 833.557 469.284 833.943C469.245 834.321 469.245 834.703 469.284 835.089C469.32 835.468 469.385 835.825 469.477 836.159C469.721 837.051 470.092 837.664 470.588 838C471.09 838.327 471.637 838.409 472.229 838.246C472.828 838.082 473.284 837.739 473.598 837.218C473.917 836.689 474.042 836.052 473.972 835.307L471.277 836.047L471.175 835.064L474.936 834.031L475.363 838.206L474.423 838.464L474.322 837.48L474.071 837.549C473.945 837.936 473.729 838.28 473.422 838.581C473.122 838.881 472.711 839.102 472.189 839.246ZM482.501 836.414C481.937 836.569 481.404 836.603 480.9 836.517C480.402 836.421 479.971 836.214 479.606 835.895C479.248 835.574 478.997 835.148 478.852 834.619L479.843 834.055C479.996 834.612 480.304 835.025 480.767 835.295C481.229 835.558 481.756 835.608 482.348 835.445C482.849 835.308 483.211 835.07 483.432 834.732C483.661 834.392 483.723 834.03 483.618 833.647C483.545 833.383 483.414 833.179 483.225 833.036C483.041 832.884 482.823 832.772 482.571 832.699C482.319 832.626 482.06 832.57 481.794 832.53L481.206 832.433C480.875 832.374 480.55 832.295 480.231 832.196C479.916 832.087 479.639 831.924 479.4 831.705C479.16 831.486 478.985 831.178 478.876 830.781C478.758 830.349 478.756 829.934 478.871 829.536C478.985 829.13 479.205 828.774 479.533 828.467C479.865 828.151 480.293 827.921 480.815 827.777C481.553 827.575 482.197 827.615 482.747 827.899C483.302 828.173 483.68 828.635 483.88 829.284L482.901 829.89C482.776 829.437 482.542 829.101 482.197 828.881C481.859 828.659 481.453 828.613 480.979 828.743C480.534 828.866 480.225 829.078 480.053 829.38C479.888 829.68 479.851 829.993 479.941 830.321C480.029 830.641 480.205 830.873 480.469 831.018C480.732 831.156 481.032 831.253 481.37 831.31L481.958 831.407C482.318 831.465 482.684 831.541 483.054 831.634C483.429 831.718 483.764 831.874 484.058 832.1C484.352 832.326 484.563 832.673 484.692 833.139C484.82 833.606 484.817 834.06 484.683 834.501C484.557 834.94 484.308 835.33 483.938 835.672C483.565 836.006 483.086 836.254 482.501 836.414ZM489.197 834.576C488.284 834.826 487.49 834.73 486.814 834.286C486.143 833.834 485.656 833.054 485.352 831.947C485.233 831.515 485.152 831.054 485.107 830.565C485.07 830.073 485.082 829.587 485.145 829.105C485.212 828.615 485.348 828.154 485.552 827.724C485.754 827.287 486.035 826.906 486.395 826.582C486.763 826.257 487.229 826.017 487.793 825.862C488.629 825.632 489.355 825.699 489.971 826.061C490.592 826.415 491.07 827.036 491.404 827.926L490.335 828.41C490.082 827.761 489.76 827.299 489.37 827.024C488.978 826.742 488.525 826.672 488.009 826.813C487.612 826.922 487.292 827.108 487.05 827.369C486.805 827.623 486.622 827.925 486.5 828.272C486.385 828.619 486.314 828.986 486.286 829.376C486.263 829.757 486.274 830.136 486.318 830.513C486.368 830.889 486.436 831.23 486.52 831.536C486.742 832.344 487.071 832.931 487.509 833.298C487.954 833.663 488.462 833.767 489.033 833.61C489.416 833.505 489.729 833.321 489.971 833.06C490.214 832.799 490.396 832.491 490.515 832.136C490.64 831.772 490.712 831.393 490.731 830.998L491.853 831.117C491.798 831.626 491.675 832.117 491.482 832.589C491.295 833.052 491.014 833.459 490.638 833.81C490.269 834.158 489.789 834.413 489.197 834.576ZM496.398 832.599C495.75 832.777 495.157 832.797 494.617 832.661C494.083 832.515 493.623 832.23 493.236 831.804C492.855 831.37 492.571 830.811 492.383 830.129C492.232 829.578 492.139 829.035 492.104 828.498C492.069 827.961 492.096 827.447 492.187 826.958C492.277 826.469 492.435 826.021 492.66 825.615C492.893 825.207 493.198 824.857 493.575 824.566C493.95 824.269 494.405 824.046 494.942 823.899C495.589 823.721 496.179 823.701 496.712 823.84C497.251 823.976 497.71 824.258 498.09 824.686C498.469 825.113 498.754 825.672 498.943 826.361C499.094 826.912 499.188 827.459 499.225 828.003C499.26 828.54 499.233 829.053 499.142 829.542C499.052 830.031 498.894 830.479 498.669 830.886C498.443 831.292 498.143 831.644 497.768 831.942C497.391 832.233 496.934 832.452 496.398 832.599ZM496.161 831.653C496.551 831.546 496.873 831.371 497.129 831.129C497.391 830.884 497.593 830.597 497.735 830.266C497.881 829.926 497.975 829.559 498.017 829.166C498.057 828.766 498.052 828.355 498.004 827.934C497.961 827.504 497.883 827.083 497.77 826.672C497.566 825.927 497.233 825.397 496.772 825.082C496.316 824.757 495.778 824.68 495.158 824.851C494.768 824.958 494.445 825.132 494.19 825.375C493.932 825.61 493.73 825.898 493.584 826.238C493.443 826.568 493.352 826.934 493.312 827.335C493.271 827.728 493.271 828.14 493.314 828.57C493.363 828.991 493.444 829.41 493.559 829.828C493.762 830.566 494.091 831.098 494.547 831.422C495.003 831.746 495.541 831.823 496.161 831.653ZM500.962 831.177L500.083 822.656L502.966 821.864C503.551 821.704 504.046 821.665 504.451 821.749C504.863 821.83 505.19 821.999 505.432 822.254C505.682 822.508 505.856 822.816 505.956 823.178C506.112 823.749 506.062 824.287 505.803 824.793C505.543 825.291 505.116 825.7 504.523 826.02L506.858 829.491L506.875 829.554L505.673 829.884L503.438 826.487L501.724 826.957L502.132 830.856L500.962 831.177ZM501.634 826.016L503.295 825.56C503.915 825.39 504.348 825.14 504.595 824.81C504.841 824.48 504.903 824.092 504.781 823.646C504.662 823.215 504.443 822.949 504.124 822.849C503.81 822.741 503.426 822.749 502.973 822.873L501.354 823.318L501.634 826.016ZM508.062 829.228L507.183 820.706L512.156 819.341L512.258 820.369L508.435 821.419L508.693 823.831L511.701 823.005L511.803 823.988L508.794 824.814L509.109 827.884L513.037 826.806L513.14 827.834L508.062 829.228Z" fill="#F4F4F4"/>
<rect x="263.612" y="856.354" width="444" height="12" rx="6" transform="rotate(-15 263.612 856.354)" fill="#041235" stroke="#179EFF"/>
<rect x="263" y="857" width="168.604" height="11.58" rx="5.79" transform="rotate(-15 263 857)" fill="#179EFF"/>
<defs>
<filter id="filter0_d_1422_8398" x="239.332" y="88.9062" width="389.255" height="733.609" filterUnits="userSpaceOnUse" color-interpolation-filters="sRGB">
<feFlood flood-opacity="0" result="BackgroundImageFix"/>
<feColorMatrix in="SourceAlpha" type="matrix" values="0 0 0 0 0 0 0 0 0 0 0 0 0 0 0 0 0 0 127 0" result="hardAlpha"/>
<feOffset dx="8" dy="4"/>
<feGaussianBlur stdDeviation="10"/>
<feComposite in2="hardAlpha" operator="out"/>
<feColorMatrix type="matrix" values="0 0 0 0 0 0 0 0 0 0 0 0 0 0 0 0 0 0 0.3 0"/>
<feBlend mode="normal" in2="BackgroundImageFix" result="effect1_dropShadow_1422_8398"/>
<feBlend mode="normal" in="SourceGraphic" in2="effect1_dropShadow_1422_8398" result="shape"/>
</filter>
<linearGradient id="paint0_linear_1422_8398" x1="310.642" y1="107.423" x2="467.471" y2="765.255" gradientUnits="userSpaceOnUse">
<stop stop-color="#E9E2D7" stop-opacity="0.49"/>
<stop offset="0.341058" stop-color="#E9E2D7" stop-opacity="0.74"/>
<stop offset="0.481334" stop-color="#BFDB85"/>
<stop offset="0.535923" stop-color="#BCDA7E"/>
<stop offset="0.558875" stop-color="#A7BC95"/>
<stop offset="0.586169" stop-color="#8286BF"/>
<stop offset="0.611602" stop-color="#6359E2"/>
<stop offset="0.628972" stop-color="#6359E2"/>
<stop offset="0.661179" stop-color="#6257E2"/>
<stop offset="0.690089" stop-color="#4E90B8"/>
<stop offset="0.714091" stop-color="#43B0A0"/>
<stop offset="0.747941" stop-color="#3CC690"/>
<stop offset="0.826133" stop-color="#2AC28B"/>
<stop offset="0.939633" stop-color="#E9E2D7" stop-opacity="0.78"/>
</linearGradient>
<radialGradient id="paint1_radial_1422_8398" cx="0" cy="0" r="1" gradientUnits="userSpaceOnUse" gradientTransform="translate(499.2 625.353) rotate(164.137) scale(83.8926 26.4855)">
<stop stop-color="#1BAB77" stop-opacity="0.8"/>
<stop offset="0.447917" stop-color="#21AE7B" stop-opacity="0.441667"/>
<stop offset="1" stop-color="#28B180" stop-opacity="0"/>
</radialGradient>
<linearGradient id="paint2_linear_1422_8398" x1="620.61" y1="479.938" x2="236.469" y2="628.675" gradientUnits="userSpaceOnUse">
<stop/>
<stop offset="1" stop-color="#4D98B3" stop-opacity="0"/>
</linearGradient>
</defs>
</svg>
