<svg width="626" height="814" viewBox="0 0 626 814" fill="none" xmlns="http://www.w3.org/2000/svg">
<path d="M489.682 306.682L341.76 289.715C310.961 285.82 281.45 264.707 274.16 234.822L232.453 55.1818C232.208 54.267 231.284 53.7208 230.382 53.9622L208.533 59.8091C207.609 60.0564 207.081 60.9913 207.348 61.9001L260.645 237.272C269.26 266.825 254.232 299.834 229.496 318.591L103.217 408.936C76.5792 429.135 128.743 623.531 161.928 627.534L325.487 653.504C355.503 657.118 377.337 667.426 385.303 696.313L385.483 696.988L400.981 741.597C401.214 742.468 402.155 742.986 403.035 742.751C403.915 742.515 404.455 741.624 404.238 740.725L395.41 693.818C387.751 664.756 401.505 644.784 425.781 626.594L547.749 524.286C574.5 504.243 522.892 310.865 489.726 306.67L489.682 306.682Z" stroke="#F4F4F4" stroke-width="1.035" stroke-miterlimit="10" stroke-dasharray="6.21 6.21"/>
<g filter="url(#filter0_d_1422_8404)">
<path d="M490.535 465.587L421.853 432.813C399.734 422.259 379.666 407.861 362.583 390.289L328.637 355.374C304.987 335.817 283.344 274.659 276.049 244.782L231.667 55.3929C231.423 54.4783 230.506 53.9302 229.613 54.1691L207.99 59.9557C207.075 60.2005 206.554 61.1332 206.821 62.0419L262.961 248.285C271.569 277.834 282.644 344.207 273.205 370.97L260.73 418.549C254.671 441.659 244.657 463.545 231.133 483.238L186.764 547.843C179.519 557.665 175.396 569.417 175.447 580.993C175.612 618.677 227.062 621.934 264.363 616.579L268.711 615.954C292.247 612.576 317.545 611.593 336.704 625.674C362.233 644.436 378.877 675.36 384.665 696.355L384.846 697.03L400.307 741.639C400.54 742.51 401.473 743.031 402.344 742.798C403.215 742.565 403.747 741.676 403.53 740.777L394.669 693.888C387.01 664.832 392.525 601.674 430.534 576.992L508.284 531.91C534.726 511.953 520.947 474.95 490.579 465.576L490.535 465.587Z" fill="url(#paint0_linear_1422_8404)" fill-opacity="0.2" shape-rendering="crispEdges"/>
</g>
<path d="M425.782 573.461L479.41 554.328L433.508 575.019L418.19 587.735L407.559 602.644L403.28 612.526L399.59 620.169L352.585 630.518L346.439 623.872L340.504 618.239L322.956 607.631L293.19 604.333L324.007 600.01L362 592.073L396.023 582.85L425.782 573.461Z" fill="url(#paint1_radial_1422_8404)" fill-opacity="0.26"/>
<path d="M408.981 493.675L501.683 451.724L517.321 456.111L527.629 464.602L536.74 476.628L478.757 504.054C460.059 512.898 440.725 520.329 420.916 526.283L320.764 556.389L173.805 573.752L176.896 563.282L193.879 542.666L235.012 540.23L310.104 526.563L408.981 493.675Z" fill="url(#paint2_linear_1422_8404)" fill-opacity="0.04"/>
<rect x="178.414" y="554.727" width="332" height="66" rx="30" transform="rotate(-14.9817 178.414 554.727)" fill="#2AC28B"/>
<rect x="242.767" y="468.148" width="169" height="67" rx="30" transform="rotate(-14.9817 242.767 468.148)" fill="#6257E2"/>
<path d="M290.169 386.109L307.489 450.832" stroke="black" stroke-width="0.8"/>
<path d="M296.931 384.297L314.251 449.019" stroke="black" stroke-width="0.8"/>
<path d="M317.217 378.867L334.537 443.59" stroke="black" stroke-width="0.8"/>
<path d="M330.741 375.25L348.061 439.973" stroke="black" stroke-width="0.8"/>
<path d="M304.591 451.609L321.911 516.332" stroke="black" stroke-width="0.8"/>
<path d="M377.042 432.219L394.362 496.941" stroke="black" stroke-width="0.8"/>
<path d="M341.231 511.156L358.293 574.913" stroke="black" stroke-width="0.8"/>
<path d="M404.988 494.102L422.05 557.858" stroke="black" stroke-width="0.8"/>
<rect x="296.931" y="384.297" width="21" height="67" transform="rotate(-14.9817 296.931 384.297)" fill="#E1F1C0"/>
<path fill-rule="evenodd" clip-rule="evenodd" d="M314.566 430.691C314.055 430.317 313.328 429.466 312.182 428.504C311.533 427.96 310.03 427.011 309.512 426.464C309.059 425.978 309.024 425.716 308.97 425.228C308.874 424.359 309.569 423.477 310.52 423.316C311.239 423.194 311.955 423.49 312.605 423.778C312.997 423.951 313.528 424.348 313.843 424.568C314.133 424.77 314.216 424.863 314.533 425.108C314.953 425.433 315.104 425.609 314.865 425.192C314.593 424.558 314.135 423.475 313.642 422.541C313.268 421.832 313.194 421.725 312.874 421.19C312.535 420.62 312.33 420.212 311.992 419.602C311.755 419.17 311.298 418.28 311.101 417.763C310.829 417.057 310.472 415.883 310.8 415.211C311.057 414.685 311.874 414.328 312.473 414.45C313.256 414.609 313.914 415.493 314.199 415.839C314.711 416.462 315.131 417.229 315.593 418.258C316.181 419.569 317.097 421.361 317.218 421.757C317.119 421.258 316.719 420.259 316.679 419.766C316.643 419.318 316.875 418.725 317.296 418.469C317.652 418.253 318.093 418.09 318.513 418.065C318.959 418.037 319.484 418.215 319.725 418.451C320.436 419.149 320.898 420.841 320.894 420.745C320.877 420.214 320.553 419.086 320.715 418.538C320.821 418.176 321.228 417.767 321.472 417.653C321.851 417.478 322.332 417.326 322.771 417.294C323.125 417.269 323.685 417.541 323.858 417.697C324.275 418.075 324.788 419.323 324.959 419.763C325.03 419.944 324.92 419.215 325.093 418.679C325.414 417.683 327.311 416.999 327.883 418.842C328.15 419.702 328.132 419.664 328.289 420.248C328.473 420.935 328.567 421.353 328.662 421.86C328.762 422.403 328.968 423.635 328.955 424.262C328.946 424.693 328.801 425.695 328.566 426.336C328.566 426.336 327.561 428.385 327.603 429.176C327.643 429.965 327.697 429.956 327.808 430.495C327.919 431.032 328.299 431.676 328.299 431.676C328.299 431.676 327.254 432.104 326.646 432.168C326.095 432.226 325.165 431.367 324.912 431.096C324.563 430.722 324.09 430.939 323.983 431.312C323.815 431.902 323.406 432.99 322.959 433.171C322.087 433.523 320.197 433.954 318.728 434.331C318.728 434.331 318.618 432.921 317.939 432.609C317.435 432.375 316.539 431.867 316.017 431.614L314.566 430.691Z" fill="white" stroke="black" stroke-width="0.855473" stroke-linecap="round" stroke-linejoin="round"/>
<rect x="267.422" y="392.188" width="80" height="67" rx="20" transform="rotate(-14.9817 267.422 392.188)" fill="#BCDA7E"/>
<path d="M283.845 387.797L301.165 452.519" stroke="black" stroke-width="0.8"/>
<path d="M296.931 384.297L314.251 449.019" stroke="black" stroke-width="0.8"/>
<path d="M317.217 378.867L334.537 443.59" stroke="black" stroke-width="0.8"/>
<path d="M336.009 373.836L353.329 438.559" stroke="black" stroke-width="0.8"/>
<path d="M304.591 451.609L321.911 516.332" stroke="black" stroke-width="0.8"/>
<path d="M377.042 432.219L394.362 496.941" stroke="black" stroke-width="0.8"/>
<path d="M348.499 439.852L365.819 504.574" stroke="black" stroke-width="0.8"/>
<path d="M272.541 408.416C270.286 399.989 275.086 391.336 283.318 388.728L300.241 451.968C291.807 453.82 283.327 448.721 281.072 440.294L272.541 408.416Z" fill="#E1F1C0" stroke="#179EFF" stroke-width="1.5"/>
<path fill-rule="evenodd" clip-rule="evenodd" d="M284.298 435.781C283.913 435.494 283.365 434.845 282.501 434.109C282.012 433.693 280.881 432.966 280.491 432.548C280.149 432.177 280.122 431.977 280.08 431.606C280.005 430.945 280.525 430.275 281.238 430.156C281.777 430.065 282.316 430.293 282.804 430.513C283.099 430.646 283.5 430.95 283.737 431.119C283.955 431.273 284.018 431.344 284.257 431.532C284.573 431.78 284.687 431.914 284.506 431.596C284.3 431.113 283.953 430.287 283.58 429.575C283.296 429.034 283.241 428.953 282.999 428.544C282.743 428.11 282.588 427.798 282.332 427.333C282.153 427.004 281.807 426.325 281.657 425.931C281.452 425.393 281.18 424.498 281.424 423.988C281.615 423.588 282.228 423.319 282.678 423.413C283.266 423.537 283.763 424.211 283.978 424.476C284.365 424.952 284.682 425.536 285.032 426.321C285.477 427.32 286.171 428.687 286.262 428.989C286.187 428.609 285.883 427.847 285.852 427.472C285.824 427.131 285.996 426.68 286.311 426.486C286.577 426.323 286.908 426.201 287.224 426.183C287.558 426.163 287.953 426.3 288.135 426.48C288.67 427.014 289.023 428.302 289.019 428.23C289.005 427.826 288.758 426.966 288.878 426.549C288.956 426.274 289.261 425.964 289.444 425.878C289.728 425.746 290.089 425.632 290.418 425.609C290.683 425.591 291.105 425.799 291.236 425.918C291.549 426.207 291.939 427.159 292.068 427.494C292.122 427.633 292.037 427.077 292.166 426.669C292.404 425.913 293.826 425.398 294.261 426.802C294.464 427.457 294.45 427.428 294.57 427.874C294.71 428.397 294.782 428.715 294.855 429.101C294.932 429.515 295.089 430.453 295.082 430.93C295.076 431.258 294.971 432.021 294.796 432.508C294.796 432.508 294.047 434.064 294.081 434.666C294.114 435.267 294.154 435.261 294.239 435.671C294.324 436.08 294.612 436.571 294.612 436.571C294.612 436.571 293.828 436.894 293.371 436.941C292.958 436.983 292.257 436.327 292.066 436.12C291.803 435.834 291.449 435.998 291.369 436.281C291.245 436.73 290.941 437.557 290.607 437.693C289.953 437.959 288.535 438.281 287.433 438.564C287.433 438.564 287.347 437.49 286.835 437.251C286.456 437.071 285.782 436.682 285.39 436.488L284.298 435.781Z" fill="white" stroke="black" stroke-width="0.855473" stroke-linecap="round" stroke-linejoin="round"/>
<path d="M376.445 501.727L393.766 566.449" stroke="black" stroke-width="0.8"/>
<path d="M311.464 518.086L328.784 582.809" stroke="black" stroke-width="0.8"/>
<path d="M224.523 541.352L241.844 606.074" stroke="black" stroke-width="0.8"/>
<path d="M394.8 496.82L412.12 561.543" stroke="black" stroke-width="0.8"/>
<path d="M435.372 485.961L452.692 550.684" stroke="black" stroke-width="0.8"/>
<g filter="url(#filter1_d_1422_8404)">
<path fill-rule="evenodd" clip-rule="evenodd" d="M168.168 330.759C162.833 332.186 159.665 337.669 161.093 343.004L179.035 410.051C180.463 415.386 185.945 418.553 191.28 417.126L266.565 396.979L275.094 401.515L280.217 393.325L356.468 372.92C361.803 371.493 364.97 366.01 363.543 360.675L345.601 293.628C344.173 288.293 338.69 285.126 333.355 286.553L168.168 330.759Z" fill="url(#paint3_radial_1422_8404)" shape-rendering="crispEdges"/>
</g>
<path d="M173.243 346.996L171.665 341.099L175.446 340.087L175.636 340.798L172.702 341.583L173.149 343.254L175.463 342.635L175.645 343.315L173.331 343.934L173.9 346.059L176.879 345.262L177.069 345.973L173.243 346.996ZM178.131 345.688L176.917 341.152L177.643 340.958L177.825 341.638L178.006 341.589C178.024 341.315 178.121 341.081 178.297 340.888C178.47 340.69 178.721 340.547 179.049 340.46C179.578 340.318 180.005 340.379 180.33 340.644C180.658 340.901 180.89 341.285 181.027 341.794L181.806 344.705L180.989 344.924L180.256 342.186C180.151 341.793 180 341.512 179.804 341.343C179.606 341.169 179.359 341.122 179.061 341.202C178.693 341.3 178.445 341.523 178.317 341.871C178.187 342.214 178.179 342.599 178.294 343.028L178.947 345.47L178.131 345.688ZM183.91 344.142L181.332 340.019L181.32 339.973L182.137 339.755L184.311 343.305L184.492 343.257L184.602 339.095L185.358 338.893L185.37 338.938L185.196 343.798L183.91 344.142ZM187.355 343.22L186.141 338.683L186.957 338.465L188.171 343.002L187.355 343.22ZM186.379 337.939C186.223 337.981 186.087 337.968 185.972 337.902C185.862 337.834 185.787 337.725 185.747 337.574C185.706 337.422 185.717 337.29 185.778 337.176C185.844 337.061 185.956 336.983 186.112 336.941C186.273 336.898 186.409 336.91 186.519 336.978C186.629 337.046 186.704 337.155 186.745 337.306C186.785 337.458 186.775 337.59 186.713 337.704C186.652 337.817 186.54 337.896 186.379 337.939ZM189.488 342.649L188.274 338.113L188.999 337.918L189.206 338.69L189.387 338.641C189.384 338.507 189.403 338.367 189.445 338.221C189.487 338.074 189.58 337.939 189.725 337.813C189.868 337.683 190.091 337.578 190.394 337.497L190.545 337.456L190.751 338.227L190.524 338.288C190.071 338.41 189.782 338.614 189.659 338.9C189.535 339.182 189.539 339.573 189.673 340.072L190.304 342.431L189.488 342.649ZM194.256 341.495C193.565 341.68 192.994 341.603 192.541 341.265C192.093 340.92 191.771 340.385 191.577 339.659C191.383 338.934 191.395 338.312 191.613 337.794C191.834 337.27 192.29 336.916 192.981 336.731C193.672 336.547 194.241 336.626 194.69 336.971C195.142 337.309 195.466 337.841 195.66 338.567C195.854 339.293 195.84 339.917 195.619 340.441C195.401 340.959 194.946 341.31 194.256 341.495ZM194.078 340.829C194.496 340.717 194.76 340.482 194.869 340.123C194.984 339.763 194.97 339.319 194.828 338.789C194.687 338.26 194.476 337.868 194.197 337.613C193.924 337.357 193.578 337.285 193.159 337.397C192.741 337.509 192.474 337.745 192.36 338.105C192.251 338.464 192.267 338.908 192.409 339.437C192.55 339.966 192.758 340.359 193.032 340.615C193.311 340.87 193.659 340.941 194.078 340.829ZM197.261 340.569L196.047 336.032L196.773 335.838L196.955 336.519L197.136 336.47C197.155 336.195 197.251 335.961 197.427 335.769C197.601 335.571 197.851 335.428 198.179 335.34C198.708 335.199 199.135 335.26 199.46 335.524C199.788 335.782 200.02 336.166 200.157 336.675L200.936 339.586L200.119 339.804L199.387 337.067C199.281 336.674 199.131 336.393 198.934 336.224C198.736 336.05 198.489 336.003 198.191 336.082C197.823 336.181 197.575 336.404 197.447 336.752C197.317 337.094 197.309 337.48 197.424 337.908L198.078 340.351L197.261 340.569ZM202.179 339.253L200.965 334.716L201.69 334.522L201.875 335.21L202.056 335.162C202.058 334.886 202.139 334.653 202.299 334.465C202.463 334.27 202.699 334.131 203.006 334.049C203.334 333.961 203.62 333.963 203.866 334.053C204.111 334.139 204.314 334.293 204.476 334.514L204.657 334.466C204.674 334.186 204.768 333.95 204.938 333.758C205.112 333.561 205.36 333.419 205.683 333.332C206.182 333.199 206.586 333.266 206.895 333.534C207.209 333.796 207.433 334.182 207.57 334.691L208.349 337.602L207.532 337.821L206.799 335.083C206.694 334.69 206.551 334.407 206.37 334.234C206.187 334.056 205.957 334.004 205.68 334.079C205.342 334.169 205.119 334.385 205.011 334.727C204.901 335.065 204.904 335.448 205.018 335.876L205.672 338.318L204.855 338.537L204.123 335.8C204.018 335.406 203.874 335.123 203.693 334.95C203.51 334.773 203.28 334.721 203.003 334.795C202.665 334.885 202.442 335.101 202.334 335.444C202.225 335.781 202.227 336.164 202.342 336.592L202.995 339.035L202.179 339.253ZM211.34 336.923C210.675 337.101 210.11 337.02 209.647 336.679C209.187 336.332 208.861 335.801 208.669 335.085C208.542 334.612 208.507 334.178 208.564 333.785C208.625 333.385 208.777 333.045 209.02 332.763C209.269 332.481 209.615 332.28 210.058 332.161C210.678 331.995 211.203 332.071 211.634 332.388C212.07 332.703 212.39 333.244 212.595 334.011L212.658 334.245L209.52 335.085C209.664 335.521 209.875 335.857 210.153 336.09C210.436 336.317 210.776 336.377 211.174 336.271C211.461 336.194 211.672 336.051 211.805 335.842C211.938 335.634 212.004 335.376 212.003 335.068L212.774 334.862C212.791 335.187 212.755 335.488 212.667 335.766C212.578 336.038 212.426 336.276 212.21 336.479C211.993 336.678 211.703 336.826 211.34 336.923ZM209.369 334.493L211.706 333.868C211.573 333.433 211.378 333.126 211.119 332.947C210.861 332.768 210.562 332.723 210.225 332.814C209.867 332.909 209.616 333.103 209.473 333.396C209.335 333.687 209.3 334.052 209.369 334.493ZM214.203 336.035L212.989 331.499L213.714 331.304L213.897 331.985L214.078 331.936C214.096 331.661 214.193 331.428 214.368 331.235C214.542 331.037 214.793 330.894 215.121 330.807C215.65 330.665 216.077 330.726 216.401 330.991C216.73 331.248 216.962 331.632 217.098 332.141L217.877 335.052L217.061 335.271L216.328 332.533C216.223 332.14 216.072 331.859 215.876 331.69C215.678 331.516 215.43 331.469 215.133 331.549C214.765 331.647 214.517 331.87 214.388 332.218C214.259 332.561 214.251 332.946 214.366 333.375L215.019 335.817L214.203 336.035ZM219.687 334.568C219.54 334.461 219.405 334.322 219.284 334.149C219.167 333.975 219.057 333.696 218.955 333.313L218.273 330.765L217.653 330.931L217.483 330.296L218.118 330.126L217.814 328.992L218.601 328.781L218.904 329.916L219.675 329.709L219.845 330.344L219.089 330.547L219.737 332.966C219.847 333.38 219.973 333.678 220.114 333.862C220.259 334.039 220.413 334.179 220.575 334.281L220.587 334.327L219.687 334.568ZM223.32 333.717C222.932 333.821 222.575 333.811 222.25 333.687C221.925 333.564 221.643 333.345 221.402 333.031C221.165 332.711 220.982 332.309 220.853 331.825C220.723 331.341 220.682 330.904 220.728 330.513C220.779 330.116 220.914 329.783 221.133 329.514C221.358 329.243 221.667 329.055 222.06 328.95C222.403 328.858 222.695 328.858 222.935 328.95C223.18 329.036 223.367 329.159 223.496 329.319L223.677 329.27L223.519 328.681L224.245 328.486L225.459 333.023L224.734 333.217L224.576 332.627L224.394 332.676C224.362 332.879 224.262 333.081 224.095 333.283C223.926 333.479 223.668 333.624 223.32 333.717ZM223.281 332.998C223.659 332.897 223.917 332.66 224.056 332.289C224.194 331.917 224.195 331.476 224.058 330.967C223.922 330.458 223.701 330.077 223.396 329.824C223.091 329.571 222.749 329.495 222.371 329.596C222.003 329.694 221.76 329.918 221.643 330.268C221.526 330.618 221.54 331.063 221.684 331.602C221.829 332.142 222.039 332.534 222.315 332.779C222.591 333.023 222.913 333.097 223.281 332.998ZM227.091 332.586C226.943 332.48 226.809 332.34 226.687 332.168C226.57 331.994 226.461 331.715 226.358 331.332L225.102 326.637L225.918 326.418L227.146 331.008C227.254 331.411 227.378 331.702 227.518 331.881C227.662 332.058 227.816 332.198 227.978 332.3L227.991 332.346L227.091 332.586ZM232.976 331.133C232.164 331.35 231.458 331.253 230.856 330.842C230.258 330.424 229.829 329.731 229.57 328.763C229.31 327.79 229.338 326.975 229.654 326.318C229.969 325.661 230.53 325.224 231.337 325.009C231.806 324.883 232.236 324.865 232.627 324.955C233.022 325.038 233.364 325.214 233.652 325.483C233.945 325.75 234.169 326.095 234.326 326.518L233.471 326.747C233.301 326.312 233.041 325.998 232.692 325.805C232.349 325.61 231.952 325.573 231.504 325.693C230.954 325.84 230.587 326.163 230.402 326.661C230.22 327.152 230.23 327.776 230.432 328.532C230.636 329.293 230.942 329.841 231.35 330.175C231.763 330.507 232.237 330.602 232.771 330.459C233.245 330.332 233.578 330.092 233.769 329.738C233.966 329.383 234.028 328.991 233.957 328.561L234.811 328.333C234.885 328.772 234.863 329.183 234.744 329.566C234.629 329.943 234.424 330.267 234.13 330.541C233.834 330.809 233.45 331.006 232.976 331.133ZM237.833 329.833C237.445 329.937 237.089 329.927 236.764 329.803C236.439 329.68 236.157 329.461 235.916 329.147C235.679 328.827 235.496 328.425 235.366 327.941C235.237 327.457 235.195 327.02 235.242 326.629C235.293 326.232 235.428 325.899 235.647 325.63C235.872 325.359 236.181 325.171 236.574 325.066C236.917 324.974 237.208 324.974 237.449 325.066C237.694 325.152 237.88 325.275 238.01 325.435L238.191 325.386L238.033 324.797L238.759 324.602L239.973 329.139L239.247 329.333L239.089 328.743L238.908 328.792C238.876 328.995 238.776 329.197 238.609 329.399C238.44 329.595 238.181 329.74 237.833 329.833ZM237.795 329.114C238.173 329.013 238.431 328.777 238.569 328.405C238.707 328.033 238.708 327.592 238.572 327.083C238.436 326.574 238.215 326.193 237.91 325.94C237.604 325.687 237.263 325.611 236.884 325.712C236.517 325.81 236.274 326.034 236.157 326.384C236.04 326.734 236.054 327.179 236.198 327.718C236.342 328.258 236.553 328.65 236.829 328.895C237.105 329.14 237.427 329.213 237.795 329.114ZM241.839 328.64C241.692 328.533 241.557 328.394 241.435 328.221C241.318 328.047 241.209 327.769 241.106 327.385L240.424 324.837L239.804 325.003L239.634 324.368L240.27 324.198L239.966 323.064L240.752 322.854L241.056 323.988L241.827 323.781L241.997 324.416L241.241 324.619L241.888 327.038C241.999 327.452 242.125 327.75 242.266 327.934C242.411 328.111 242.564 328.251 242.727 328.354L242.739 328.399L241.839 328.64ZM245.675 327.735C245.01 327.913 244.446 327.831 243.982 327.491C243.522 327.144 243.196 326.613 243.004 325.897C242.877 325.423 242.842 324.99 242.899 324.596C242.96 324.197 243.112 323.856 243.355 323.575C243.604 323.292 243.95 323.092 244.393 322.973C245.013 322.807 245.538 322.883 245.969 323.2C246.405 323.515 246.725 324.056 246.93 324.822L246.993 325.057L243.855 325.896C243.999 326.333 244.21 326.668 244.488 326.902C244.771 327.129 245.111 327.189 245.509 327.082C245.796 327.005 246.007 326.863 246.14 326.654C246.273 326.446 246.339 326.188 246.338 325.88L247.109 325.674C247.126 325.999 247.09 326.3 247.003 326.577C246.913 326.85 246.761 327.088 246.545 327.291C246.328 327.49 246.038 327.637 245.675 327.735ZM243.704 325.305L246.041 324.679C245.908 324.245 245.713 323.938 245.454 323.759C245.196 323.579 244.897 323.535 244.56 323.625C244.202 323.721 243.951 323.915 243.808 324.207C243.67 324.498 243.635 324.864 243.704 325.305ZM250.679 328.008C250.357 328.094 250.074 328.127 249.83 328.105C249.587 328.084 249.377 328.027 249.201 327.934C249.026 327.845 248.883 327.735 248.772 327.603C248.661 327.47 248.576 327.334 248.517 327.193L249.333 326.974C249.409 327.138 249.546 327.266 249.744 327.359C249.942 327.452 250.21 327.453 250.547 327.363C250.91 327.266 251.163 327.09 251.306 326.836C251.453 326.58 251.467 326.228 251.347 325.779L251.211 325.273L251.03 325.321C251.003 325.544 250.91 325.75 250.75 325.939C250.593 326.121 250.349 326.257 250.016 326.346C249.456 326.496 248.958 326.41 248.521 326.09C248.089 325.768 247.778 325.251 247.588 324.541C247.464 324.077 247.427 323.657 247.478 323.282C247.534 322.905 247.671 322.59 247.89 322.337C248.112 322.078 248.41 321.898 248.783 321.798C249.131 321.705 249.417 321.704 249.641 321.796C249.87 321.886 250.053 322.012 250.188 322.176L250.37 322.127L250.212 321.538L250.938 321.343L252.085 325.63C252.247 326.235 252.207 326.74 251.964 327.146C251.723 327.556 251.294 327.843 250.679 328.008ZM249.932 325.639C250.32 325.535 250.58 325.307 250.713 324.952C250.843 324.593 250.847 324.182 250.723 323.718C250.596 323.244 250.385 322.89 250.09 322.656C249.799 322.415 249.464 322.345 249.086 322.447C248.733 322.541 248.498 322.752 248.381 323.081C248.263 323.409 248.273 323.828 248.409 324.337C248.545 324.846 248.744 325.215 249.004 325.442C249.27 325.668 249.579 325.734 249.932 325.639ZM255.217 325.181C254.527 325.366 253.955 325.289 253.503 324.951C253.054 324.607 252.733 324.072 252.538 323.346C252.344 322.62 252.356 321.998 252.574 321.481C252.796 320.957 253.252 320.602 253.942 320.418C254.633 320.233 255.203 320.313 255.651 320.657C256.104 320.995 256.427 321.527 256.621 322.253C256.815 322.979 256.802 323.604 256.58 324.128C256.362 324.645 255.908 324.996 255.217 325.181ZM255.039 324.516C255.457 324.404 255.721 324.168 255.831 323.81C255.945 323.45 255.931 323.005 255.79 322.476C255.648 321.946 255.438 321.554 255.159 321.299C254.885 321.043 254.539 320.971 254.12 321.083C253.702 321.195 253.436 321.431 253.321 321.791C253.212 322.15 253.228 322.594 253.37 323.123C253.512 323.652 253.719 324.045 253.993 324.301C254.272 324.556 254.621 324.628 255.039 324.516ZM258.237 324.251L257.023 319.715L257.749 319.52L257.956 320.292L258.137 320.243C258.134 320.109 258.153 319.969 258.195 319.823C258.237 319.676 258.33 319.541 258.475 319.415C258.618 319.285 258.841 319.18 259.143 319.099L259.295 319.058L259.501 319.829L259.274 319.89C258.821 320.012 258.532 320.216 258.409 320.503C258.285 320.784 258.289 321.175 258.423 321.674L259.054 324.033L258.237 324.251ZM262.018 324.86L262.006 324.815C262.093 324.554 262.177 324.251 262.257 323.905C262.339 323.564 262.403 323.22 262.451 322.873L259.678 319.053L259.666 319.007L260.483 318.789L261.937 320.831C262.022 320.948 262.107 321.074 262.192 321.208C262.28 321.336 262.377 321.496 262.482 321.689L262.664 321.641C262.659 321.421 262.66 321.234 262.668 321.081C262.679 320.921 262.693 320.769 262.708 320.624L262.948 318.129L263.704 317.927L263.716 317.972L263.251 322.472C263.206 322.911 263.149 323.321 263.078 323.702C263.012 324.081 262.941 324.392 262.865 324.633L262.018 324.86Z" fill="#041235"/>
<path d="M186.15 387.148C185.767 387.25 185.415 387.288 185.094 387.26C184.779 387.231 184.495 387.15 184.244 387.018C183.996 386.879 183.783 386.698 183.604 386.476C183.431 386.252 183.295 385.997 183.197 385.71L184.013 385.491C184.09 385.719 184.219 385.925 184.398 386.11C184.575 386.289 184.798 386.416 185.066 386.49C185.34 386.562 185.653 386.551 186.006 386.457C186.389 386.355 186.666 386.191 186.839 385.967C187.01 385.737 187.056 385.476 186.978 385.184C186.899 384.892 186.734 384.696 186.48 384.596C186.232 384.495 185.934 384.434 185.588 384.413L184.971 384.376C184.658 384.357 184.353 384.32 184.058 384.264C183.76 384.203 183.5 384.089 183.277 383.922C183.054 383.755 182.897 383.5 182.805 383.157C182.716 382.824 182.721 382.52 182.821 382.245C182.92 381.97 183.097 381.734 183.352 381.536C183.605 381.333 183.921 381.181 184.299 381.08C184.758 380.957 185.158 380.939 185.5 381.026C185.841 381.108 186.122 381.262 186.345 381.488C186.568 381.715 186.733 381.987 186.839 382.304L186.022 382.523C185.957 382.34 185.857 382.178 185.722 382.036C185.592 381.893 185.422 381.792 185.212 381.735C185.002 381.678 184.749 381.689 184.451 381.768C184.129 381.855 183.889 381.997 183.731 382.196C183.577 382.388 183.534 382.611 183.602 382.863C183.677 383.145 183.846 383.332 184.108 383.424C184.376 383.514 184.679 383.568 185.018 383.586L185.644 383.621C185.955 383.635 186.255 383.673 186.542 383.737C186.834 383.799 187.087 383.918 187.301 384.093C187.519 384.261 187.676 384.525 187.772 384.882C187.918 385.427 187.841 385.898 187.543 386.297C187.244 386.695 186.78 386.979 186.15 387.148ZM190.904 385.876C190.248 386.051 189.696 385.966 189.248 385.622C188.803 385.271 188.484 384.738 188.293 384.022C188.099 383.296 188.11 382.674 188.328 382.157C188.55 381.633 188.984 381.285 189.629 381.112C190.158 380.97 190.624 381.005 191.026 381.216C191.432 381.421 191.743 381.786 191.959 382.312L191.165 382.524C191.034 382.213 190.855 381.991 190.63 381.857C190.404 381.718 190.137 381.689 189.83 381.771C189.431 381.878 189.178 382.111 189.068 382.469C188.964 382.827 188.983 383.27 189.124 383.799C189.266 384.329 189.471 384.722 189.74 384.98C190.014 385.236 190.35 385.311 190.748 385.204C191.056 385.122 191.273 384.966 191.401 384.738C191.528 384.504 191.571 384.22 191.53 383.885L192.323 383.673C192.39 384.244 192.301 384.718 192.056 385.097C191.812 385.476 191.428 385.735 190.904 385.876ZM195.429 384.665C194.738 384.849 194.166 384.773 193.714 384.435C193.265 384.09 192.944 383.555 192.75 382.829C192.555 382.103 192.567 381.482 192.785 380.964C193.007 380.44 193.463 380.086 194.154 379.901C194.844 379.716 195.414 379.796 195.863 380.141C196.315 380.479 196.638 381.011 196.833 381.737C197.027 382.462 197.013 383.087 196.791 383.611C196.573 384.129 196.119 384.48 195.429 384.665ZM195.25 383.999C195.669 383.887 195.933 383.652 196.042 383.293C196.156 382.933 196.143 382.488 196.001 381.959C195.859 381.43 195.649 381.038 195.37 380.783C195.096 380.527 194.75 380.455 194.332 380.567C193.913 380.678 193.647 380.915 193.533 381.275C193.424 381.633 193.44 382.077 193.581 382.607C193.723 383.136 193.931 383.529 194.205 383.785C194.483 384.04 194.832 384.111 195.25 383.999ZM198.449 383.735L197.235 379.198L197.961 379.004L198.167 379.775L198.349 379.727C198.345 379.593 198.364 379.452 198.406 379.306C198.448 379.16 198.541 379.024 198.686 378.899C198.83 378.769 199.052 378.663 199.355 378.582L199.506 378.542L199.713 379.313L199.486 379.374C199.032 379.495 198.744 379.699 198.621 379.986C198.496 380.268 198.501 380.658 198.634 381.157L199.265 383.516L198.449 383.735ZM203.209 382.582C202.544 382.76 201.98 382.679 201.516 382.339C201.056 381.992 200.73 381.461 200.538 380.745C200.411 380.271 200.376 379.838 200.433 379.444C200.494 379.045 200.646 378.704 200.889 378.423C201.138 378.14 201.484 377.94 201.927 377.821C202.547 377.655 203.072 377.731 203.503 378.047C203.939 378.363 204.259 378.904 204.464 379.67L204.527 379.904L201.389 380.744C201.533 381.181 201.744 381.516 202.022 381.75C202.305 381.976 202.645 382.037 203.043 381.93C203.33 381.853 203.541 381.711 203.674 381.502C203.807 381.294 203.873 381.035 203.872 380.728L204.643 380.522C204.66 380.847 204.624 381.148 204.537 381.425C204.447 381.697 204.295 381.935 204.079 382.139C203.862 382.337 203.572 382.485 203.209 382.582ZM201.238 380.152L203.575 379.527C203.442 379.093 203.247 378.786 202.988 378.607C202.73 378.427 202.431 378.383 202.094 378.473C201.736 378.569 201.485 378.763 201.342 379.055C201.204 379.346 201.169 379.712 201.238 380.152Z" fill="#041235"/>
<path d="M331.906 367.688L331.704 366.932C332.049 366.467 332.331 366.078 332.55 365.766C332.774 365.452 332.967 365.163 333.128 364.898C333.42 364.415 333.617 364 333.719 363.654C333.825 363.302 333.834 362.962 333.746 362.634C333.658 362.307 333.497 362.066 333.261 361.913C333.026 361.76 332.729 361.732 332.371 361.827C331.978 361.933 331.724 362.133 331.609 362.428C331.492 362.719 331.481 363.043 331.577 363.401L330.813 363.605C330.715 363.237 330.7 362.89 330.77 362.564C330.843 362.231 331.001 361.943 331.243 361.7C331.491 361.455 331.822 361.278 332.235 361.167C332.8 361.016 333.291 361.044 333.708 361.251C334.125 361.458 334.402 361.816 334.538 362.325C334.665 362.799 334.65 363.276 334.492 363.756C334.337 364.229 334.106 364.707 333.798 365.189C333.68 365.377 333.531 365.587 333.35 365.819C333.175 366.05 332.961 366.293 332.711 366.549L332.752 366.701L335.648 365.926L335.838 366.636L331.906 367.688ZM339.039 365.893C338.293 366.093 337.667 365.971 337.16 365.529C336.652 365.087 336.27 364.387 336.014 363.429C335.758 362.471 335.739 361.674 335.958 361.038C336.176 360.401 336.659 359.983 337.405 359.784C338.156 359.583 338.782 359.704 339.285 360.147C339.792 360.59 340.174 361.29 340.43 362.247C340.686 363.205 340.705 364.002 340.486 364.639C340.273 365.274 339.791 365.692 339.039 365.893ZM338.857 365.212C339.336 365.084 339.629 364.795 339.735 364.345C339.846 363.889 339.795 363.265 339.583 362.474C339.371 361.683 339.104 361.119 338.782 360.784C338.464 360.443 338.066 360.336 337.587 360.464C337.113 360.591 336.821 360.882 336.711 361.339C336.599 361.79 336.649 362.411 336.861 363.202C337.073 363.994 337.34 364.56 337.664 364.9C337.986 365.235 338.384 365.339 338.857 365.212ZM342.184 364.938L341.982 364.182C342.328 363.717 342.61 363.328 342.829 363.015C343.053 362.702 343.245 362.412 343.407 362.148C343.699 361.664 343.896 361.25 343.998 360.904C344.103 360.551 344.112 360.211 344.024 359.884C343.937 359.556 343.775 359.316 343.54 359.163C343.304 359.01 343.008 358.981 342.65 359.077C342.257 359.182 342.002 359.382 341.887 359.678C341.77 359.968 341.76 360.293 341.855 360.651L341.092 360.855C340.993 360.487 340.979 360.14 341.048 359.813C341.121 359.48 341.279 359.192 341.522 358.949C341.77 358.705 342.1 358.527 342.514 358.416C343.078 358.265 343.569 358.293 343.986 358.5C344.404 358.707 344.68 359.065 344.817 359.575C344.943 360.048 344.928 360.525 344.77 361.005C344.616 361.478 344.384 361.956 344.076 362.438C343.959 362.626 343.81 362.837 343.629 363.069C343.453 363.299 343.24 363.543 342.99 363.799L343.03 363.95L345.926 363.175L346.116 363.886L342.184 364.938ZM349.356 363.132C348.932 363.246 348.541 363.256 348.181 363.163C347.82 363.065 347.512 362.883 347.257 362.616C347.007 362.348 346.829 362.015 346.722 361.617C346.633 361.284 346.602 360.955 346.628 360.629C346.653 360.299 346.713 359.977 346.807 359.666C346.901 359.349 347.006 359.045 347.123 358.755C347.164 358.647 347.216 358.519 347.28 358.373C347.342 358.221 347.406 358.066 347.471 357.908C347.542 357.749 347.607 357.599 347.667 357.459C347.727 357.318 347.777 357.202 347.817 357.111L348.785 356.852L348.797 356.897C348.579 357.355 348.397 357.744 348.251 358.064C348.109 358.383 347.991 358.658 347.896 358.888C347.813 359.083 347.739 359.262 347.675 359.425C347.611 359.588 347.555 359.736 347.509 359.867L347.691 359.818C347.766 359.674 347.873 359.548 348.011 359.441C348.149 359.328 348.336 359.24 348.573 359.177C348.951 359.076 349.296 359.073 349.607 359.168C349.919 359.262 350.183 359.432 350.4 359.677C350.615 359.916 350.77 360.212 350.864 360.565C350.966 360.943 350.974 361.308 350.89 361.66C350.805 362.007 350.633 362.313 350.374 362.576C350.118 362.834 349.779 363.019 349.356 363.132ZM349.204 362.476C349.592 362.372 349.857 362.172 349.999 361.874C350.145 361.571 350.165 361.22 350.058 360.821C349.945 360.398 349.747 360.103 349.464 359.935C349.182 359.768 348.854 359.734 348.481 359.834C348.073 359.943 347.791 360.153 347.637 360.465C347.486 360.77 347.461 361.109 347.561 361.482C347.624 361.719 347.731 361.927 347.883 362.109C348.032 362.285 348.22 362.41 348.445 362.485C348.669 362.554 348.922 362.551 349.204 362.476Z" fill="#041235"/>
<path d="M178.361 366.332L174.664 352.518L179.587 351.2C181.346 350.73 182.725 350.753 183.724 351.27C184.732 351.772 185.398 352.631 185.723 353.848C186.049 355.064 185.902 356.147 185.283 357.097C184.673 358.032 183.489 358.735 181.729 359.205L178.79 359.992L180.344 365.801L178.361 366.332ZM178.363 358.398L181.214 357.635C182.324 357.338 183.069 356.93 183.449 356.411C183.84 355.889 183.926 355.214 183.704 354.388C183.483 353.561 183.073 353.02 182.473 352.763C181.884 352.503 181.035 352.521 179.925 352.818L177.074 353.581L178.363 358.398ZM196.053 361.863C194.648 362.239 193.401 362.263 192.314 361.934C191.235 361.59 190.321 360.942 189.573 359.991C188.837 359.037 188.275 357.833 187.886 356.381C187.494 354.917 187.381 353.594 187.545 352.411C187.718 351.214 188.187 350.202 188.954 349.377C189.728 348.537 190.818 347.929 192.223 347.553C193.64 347.174 194.888 347.157 195.967 347.5C197.043 347.833 197.949 348.476 198.685 349.43C199.43 350.369 199.998 351.571 200.39 353.035C200.778 354.487 200.886 355.812 200.713 357.01C200.552 358.205 200.09 359.22 199.327 360.057C198.561 360.882 197.469 361.484 196.053 361.863ZM195.626 360.269C197.067 359.884 198 359.115 198.425 357.964C198.86 356.798 198.841 355.335 198.371 353.576C197.9 351.816 197.187 350.546 196.231 349.764C195.284 348.967 194.09 348.762 192.65 349.147C191.209 349.533 190.272 350.309 189.838 351.475C189.412 352.626 189.434 354.082 189.905 355.841C190.376 357.6 191.085 358.878 192.032 359.675C192.988 360.457 194.186 360.655 195.626 360.269ZM204.573 359.317L200.876 345.503L202.86 344.973L206.111 357.122L212.628 355.378L213.074 357.042L204.573 359.317ZM215.199 356.474L211.502 342.66L213.486 342.129L216.737 354.278L223.254 352.534L223.7 354.199L215.199 356.474ZM230.128 352.744C228.239 353.25 226.715 353.107 225.554 352.317C224.406 351.524 223.574 350.165 223.059 348.24L220.893 340.147L222.912 339.607L225.101 347.789C225.5 349.276 226.068 350.288 226.806 350.825C227.556 351.358 228.533 351.463 229.737 351.141C230.942 350.819 231.729 350.241 232.101 349.407C232.485 348.571 232.477 347.409 232.079 345.921L229.89 337.739L231.838 337.218L234.004 345.311C234.519 347.236 234.477 348.829 233.878 350.09C233.291 351.348 232.041 352.232 230.128 352.744ZM242.113 349.271L238.862 337.122L234.275 338.35L233.83 336.685L244.987 333.699L245.432 335.364L240.846 336.591L244.097 348.74L242.113 349.271ZM250.884 346.924L247.187 333.11L249.171 332.579L252.867 346.393L250.884 346.924ZM261.594 344.324C260.189 344.7 258.943 344.723 257.855 344.394C256.776 344.05 255.863 343.403 255.115 342.452C254.379 341.497 253.816 340.294 253.428 338.842C253.036 337.378 252.922 336.054 253.086 334.872C253.259 333.674 253.729 332.663 254.495 331.838C255.27 330.998 256.36 330.39 257.765 330.014C259.181 329.635 260.429 329.617 261.508 329.961C262.584 330.293 263.49 330.936 264.226 331.891C264.971 332.83 265.539 334.032 265.931 335.496C266.32 336.948 266.427 338.273 266.255 339.471C266.093 340.665 265.631 341.681 264.868 342.518C264.102 343.343 263.011 343.945 261.594 344.324ZM261.167 342.73C262.608 342.344 263.541 341.576 263.967 340.425C264.401 339.258 264.383 337.795 263.912 336.036C263.441 334.277 262.728 333.006 261.772 332.225C260.825 331.428 259.632 331.222 258.191 331.608C256.751 331.993 255.813 332.769 255.379 333.936C254.953 335.087 254.976 336.542 255.447 338.302C255.917 340.061 256.626 341.339 257.573 342.135C258.529 342.917 259.727 343.115 261.167 342.73ZM270.114 341.778L266.418 327.964L270.031 326.997L278.796 337.766L279.221 337.652L275.946 325.414L277.752 324.931L281.449 338.745L277.836 339.712L269.071 328.943L268.646 329.057L271.921 341.295L270.114 341.778Z" fill="#041235"/>
<path d="M193.453 405.004C191.706 405.472 190.238 405.188 189.05 404.152C187.862 403.116 186.967 401.477 186.367 399.233C185.767 396.99 185.723 395.123 186.235 393.632C186.747 392.141 187.876 391.162 189.624 390.695C191.383 390.224 192.851 390.508 194.027 391.547C195.215 392.583 196.109 394.222 196.71 396.466C197.31 398.709 197.354 400.576 196.842 402.067C196.342 403.554 195.212 404.534 193.453 405.004ZM193.027 403.411C194.148 403.11 194.834 402.433 195.083 401.38C195.341 400.311 195.222 398.85 194.726 396.996C194.23 395.143 193.605 393.823 192.851 393.038C192.105 392.238 191.172 391.988 190.05 392.289C188.94 392.586 188.256 393.268 187.998 394.337C187.737 395.394 187.854 396.849 188.351 398.703C188.847 400.556 189.473 401.882 190.231 402.678C190.985 403.463 191.917 403.708 193.027 403.411ZM200.645 405.661L200.616 405.555C200.759 405.048 200.882 404.56 200.984 404.09C201.089 403.632 201.172 403.186 201.233 402.752C200.954 402.75 200.695 402.681 200.455 402.542C200.213 402.392 200.046 402.146 199.954 401.803C199.859 401.449 199.89 401.137 200.045 400.868C200.21 400.584 200.498 400.386 200.912 400.276C201.325 400.165 201.671 400.205 201.95 400.396C202.241 400.584 202.441 400.885 202.552 401.298C202.672 401.747 202.691 402.292 202.61 402.934C202.532 403.587 202.373 404.364 202.132 405.263L200.645 405.661ZM209.811 400.608C208.949 400.839 208.169 400.902 207.471 400.798C206.781 400.679 206.175 400.449 205.654 400.107C205.132 399.766 204.702 399.363 204.362 398.897C204.022 398.431 203.774 397.953 203.618 397.464L205.53 396.952C205.846 397.753 206.356 398.357 207.059 398.763C207.759 399.158 208.576 399.23 209.509 398.981C210.418 398.738 211.029 398.302 211.341 397.674C211.651 397.035 211.705 396.337 211.503 395.581C211.256 394.661 210.743 394.02 209.963 393.659C209.184 393.298 208.227 393.27 207.093 393.573L206.598 393.706L206.171 392.112L207.49 389.595C207.64 389.302 207.785 389.042 207.927 388.814C208.068 388.587 208.226 388.348 208.4 388.099L208.286 387.674L202.229 389.295L201.802 387.701L210.268 385.436L210.723 387.136L208.277 391.472L208.391 391.897C209.792 391.788 210.899 392.004 211.715 392.545C212.542 393.083 213.098 393.883 213.382 394.946C213.613 395.808 213.622 396.621 213.409 397.387C213.196 398.152 212.786 398.819 212.179 399.386C211.569 399.941 210.779 400.349 209.811 400.608ZM216.558 400.453L216.53 400.347L217.358 383.159L218.952 382.732L218.98 382.839L218.152 400.027L216.558 400.453ZM225.002 396.296L224.594 394.773L227.888 393.891L225.689 385.674L222.643 386.489L222.273 385.108L223.185 384.826C223.627 384.682 224.005 384.511 224.319 384.314C224.63 384.104 224.849 383.786 224.975 383.36C225.11 382.919 225.138 382.291 225.06 381.477L226.512 381.089L229.801 393.38L232.883 392.555L233.29 394.078L225.002 396.296Z" fill="#041235"/>
<path d="M385.342 791.815L384.463 783.294L389.436 781.929L389.538 782.956L385.715 784.006L385.973 786.418L388.981 785.592L389.083 786.575L386.074 787.401L386.389 790.472L390.317 789.393L390.42 790.421L385.342 791.815ZM394.574 789.449C394.01 789.604 393.476 789.638 392.973 789.552C392.475 789.456 392.044 789.249 391.679 788.93C391.321 788.608 391.069 788.183 390.924 787.654L391.915 787.09C392.068 787.647 392.376 788.06 392.84 788.33C393.301 788.593 393.828 788.643 394.42 788.48C394.922 788.343 395.283 788.105 395.505 787.767C395.734 787.427 395.795 787.065 395.69 786.682C395.618 786.418 395.487 786.214 395.298 786.071C395.114 785.919 394.896 785.807 394.644 785.734C394.391 785.661 394.132 785.605 393.867 785.565L393.279 785.468C392.948 785.409 392.623 785.33 392.303 785.23C391.989 785.122 391.712 784.958 391.472 784.74C391.232 784.521 391.058 784.213 390.949 783.816C390.83 783.384 390.829 782.969 390.944 782.57C391.057 782.165 391.278 781.809 391.605 781.501C391.938 781.185 392.365 780.956 392.888 780.812C393.626 780.61 394.27 780.65 394.82 780.933C395.374 781.208 395.752 781.67 395.953 782.319L394.973 782.925C394.849 782.472 394.614 782.136 394.269 781.916C393.931 781.694 393.526 781.648 393.052 781.778C392.606 781.901 392.297 782.113 392.126 782.415C391.961 782.714 391.923 783.028 392.013 783.355C392.101 783.676 392.277 783.908 392.542 784.053C392.804 784.19 393.104 784.288 393.442 784.345L394.03 784.442C394.391 784.5 394.756 784.576 395.126 784.669C395.501 784.753 395.836 784.908 396.13 785.135C396.425 785.361 396.636 785.707 396.764 786.174C396.892 786.641 396.889 787.094 396.756 787.536C396.629 787.975 396.381 788.365 396.01 788.706C395.638 789.041 395.159 789.288 394.574 789.449ZM401.29 787.605C400.684 787.771 400.124 787.776 399.609 787.617C399.098 787.45 398.652 787.135 398.27 786.67C397.886 786.199 397.593 785.594 397.39 784.856C397.254 784.362 397.174 783.863 397.148 783.361C397.128 782.85 397.169 782.359 397.272 781.889C397.373 781.412 397.541 780.973 397.775 780.571C398.014 780.161 398.325 779.806 398.707 779.507C399.089 779.207 399.552 778.983 400.095 778.833C400.673 778.675 401.203 778.641 401.686 778.734C402.175 778.824 402.597 779.026 402.953 779.341C403.316 779.653 403.587 780.065 403.765 780.578L402.714 781.17C402.501 780.585 402.185 780.17 401.766 779.925C401.346 779.681 400.848 779.638 400.27 779.797C399.859 779.909 399.523 780.091 399.263 780.343C399 780.587 398.799 780.878 398.66 781.216C398.52 781.554 398.429 781.916 398.385 782.302C398.347 782.68 398.347 783.062 398.385 783.448C398.422 783.828 398.486 784.185 398.578 784.519C398.823 785.41 399.193 786.024 399.69 786.359C400.192 786.686 400.738 786.768 401.33 786.605C401.929 786.441 402.386 786.098 402.7 785.578C403.019 785.048 403.143 784.411 403.074 783.666L400.378 784.406L400.277 783.423L404.038 782.391L404.465 786.565L403.525 786.823L403.423 785.84L403.172 785.909C403.046 786.295 402.83 786.639 402.523 786.941C402.224 787.24 401.813 787.462 401.29 787.605ZM411.603 784.774C411.039 784.928 410.505 784.963 410.002 784.876C409.504 784.781 409.073 784.573 408.708 784.254C408.35 783.933 408.098 783.508 407.953 782.978L408.944 782.414C409.097 782.971 409.405 783.385 409.869 783.654C410.33 783.917 410.857 783.967 411.449 783.805C411.951 783.667 412.312 783.429 412.534 783.091C412.763 782.751 412.824 782.39 412.719 782.007C412.647 781.742 412.516 781.538 412.327 781.396C412.143 781.244 411.925 781.131 411.673 781.058C411.42 780.985 411.161 780.929 410.896 780.89L410.308 780.793C409.977 780.734 409.652 780.655 409.332 780.555C409.018 780.447 408.741 780.283 408.501 780.064C408.261 779.846 408.087 779.538 407.978 779.141C407.859 778.709 407.858 778.294 407.973 777.895C408.086 777.489 408.307 777.133 408.634 776.826C408.967 776.51 409.394 776.28 409.917 776.137C410.655 775.934 411.299 775.974 411.849 776.258C412.403 776.533 412.781 776.994 412.982 777.643L412.002 778.249C411.878 777.797 411.643 777.46 411.298 777.24C410.96 777.019 410.555 776.973 410.081 777.103C409.635 777.225 409.326 777.437 409.155 777.739C408.99 778.039 408.952 778.353 409.042 778.68C409.13 779 409.306 779.233 409.571 779.377C409.833 779.515 410.133 779.612 410.471 779.669L411.059 779.766C411.42 779.825 411.785 779.9 412.155 779.993C412.53 780.078 412.865 780.233 413.159 780.459C413.454 780.685 413.665 781.032 413.793 781.499C413.921 781.965 413.918 782.419 413.785 782.86C413.658 783.299 413.41 783.69 413.039 784.031C412.667 784.365 412.188 784.613 411.603 784.774ZM418.298 782.935C417.386 783.186 416.592 783.089 415.916 782.646C415.245 782.193 414.757 781.413 414.453 780.306C414.335 779.874 414.253 779.414 414.209 778.924C414.171 778.433 414.184 777.946 414.246 777.465C414.314 776.974 414.449 776.514 414.653 776.083C414.855 775.646 415.137 775.265 415.497 774.942C415.865 774.616 416.33 774.376 416.894 774.221C417.73 773.992 418.456 774.058 419.073 774.421C419.694 774.774 420.172 775.396 420.506 776.285L419.437 776.77C419.183 776.12 418.862 775.658 418.472 775.383C418.08 775.101 417.626 775.031 417.111 775.173C416.714 775.282 416.394 775.467 416.151 775.728C415.906 775.983 415.723 776.284 415.602 776.632C415.487 776.978 415.416 777.346 415.388 777.735C415.365 778.116 415.375 778.495 415.419 778.873C415.47 779.248 415.537 779.589 415.621 779.896C415.843 780.703 416.173 781.291 416.611 781.657C417.055 782.022 417.563 782.126 418.134 781.969C418.517 781.864 418.83 781.681 419.073 781.419C419.316 781.158 419.497 780.85 419.617 780.495C419.742 780.131 419.814 779.752 419.832 779.357L420.955 779.476C420.9 779.985 420.776 780.476 420.584 780.948C420.397 781.412 420.115 781.819 419.739 782.169C419.371 782.517 418.89 782.773 418.298 782.935ZM425.499 780.958C424.852 781.136 424.258 781.157 423.719 781.02C423.185 780.875 422.724 780.589 422.338 780.164C421.956 779.729 421.672 779.17 421.485 778.488C421.334 777.938 421.241 777.394 421.205 776.857C421.17 776.32 421.198 775.807 421.288 775.318C421.379 774.829 421.537 774.381 421.762 773.974C421.994 773.566 422.299 773.216 422.676 772.926C423.051 772.628 423.507 772.405 424.043 772.258C424.691 772.08 425.281 772.061 425.813 772.199C426.353 772.336 426.812 772.618 427.191 773.045C427.571 773.473 427.855 774.031 428.045 774.721C428.196 775.271 428.29 775.818 428.327 776.362C428.362 776.899 428.334 777.412 428.244 777.902C428.154 778.391 427.996 778.839 427.77 779.245C427.545 779.651 427.245 780.003 426.869 780.301C426.492 780.592 426.036 780.811 425.499 780.958ZM425.262 780.012C425.652 779.905 425.975 779.73 426.23 779.488C426.493 779.244 426.695 778.956 426.836 778.625C426.983 778.285 427.077 777.919 427.118 777.525C427.158 777.125 427.154 776.714 427.106 776.293C427.063 775.863 426.985 775.443 426.872 775.032C426.667 774.286 426.334 773.756 425.873 773.441C425.417 773.117 424.879 773.04 424.26 773.21C423.87 773.317 423.547 773.492 423.291 773.734C423.034 773.97 422.832 774.257 422.686 774.597C422.544 774.928 422.454 775.294 422.414 775.694C422.372 776.087 422.373 776.499 422.416 776.929C422.464 777.35 422.546 777.77 422.66 778.188C422.863 778.926 423.192 779.457 423.648 779.781C424.104 780.105 424.642 780.182 425.262 780.012ZM430.063 779.537L429.184 771.015L432.068 770.224C432.653 770.063 433.148 770.024 433.552 770.108C433.964 770.19 434.291 770.358 434.534 770.614C434.783 770.867 434.958 771.175 435.057 771.537C435.214 772.108 435.163 772.647 434.905 773.152C434.645 773.65 434.218 774.059 433.624 774.38L435.959 777.85L435.976 777.913L434.775 778.243L432.539 774.846L430.826 775.317L431.233 779.215L430.063 779.537ZM430.736 774.375L432.397 773.919C433.017 773.749 433.45 773.499 433.696 773.169C433.943 772.839 434.005 772.452 433.883 772.006C433.764 771.574 433.545 771.308 433.226 771.209C432.911 771.1 432.528 771.108 432.075 771.233L430.456 771.677L430.736 774.375ZM437.164 777.587L436.285 769.066L441.257 767.7L441.36 768.728L437.536 769.778L437.794 772.19L440.803 771.364L440.904 772.347L437.896 773.173L438.211 776.244L442.139 775.165L442.241 776.193L437.164 777.587Z" fill="#F4F4F4"/>
<rect x="192.612" y="801.354" width="444" height="12" rx="6" transform="rotate(-15 192.612 801.354)" fill="#041235" stroke="#179EFF"/>
<rect x="192" y="801" width="168" height="13" rx="6.5" transform="rotate(-15 192 801)" fill="#179EFF"/>
<defs>
<filter id="filter0_d_1422_8404" x="163.446" y="38.1094" width="386.866" height="728.742" filterUnits="userSpaceOnUse" color-interpolation-filters="sRGB">
<feFlood flood-opacity="0" result="BackgroundImageFix"/>
<feColorMatrix in="SourceAlpha" type="matrix" values="0 0 0 0 0 0 0 0 0 0 0 0 0 0 0 0 0 0 127 0" result="hardAlpha"/>
<feOffset dx="8" dy="4"/>
<feGaussianBlur stdDeviation="10"/>
<feComposite in2="hardAlpha" operator="out"/>
<feColorMatrix type="matrix" values="0 0 0 0 0 0 0 0 0 0 0 0 0 0 0 0 0 0 0.3 0"/>
<feBlend mode="normal" in2="BackgroundImageFix" result="effect1_dropShadow_1422_8404"/>
<feBlend mode="normal" in="SourceGraphic" in2="effect1_dropShadow_1422_8404" result="shape"/>
</filter>
<filter id="filter1_d_1422_8404" x="156.751" y="286.211" width="211.134" height="139.258" filterUnits="userSpaceOnUse" color-interpolation-filters="sRGB">
<feFlood flood-opacity="0" result="BackgroundImageFix"/>
<feColorMatrix in="SourceAlpha" type="matrix" values="0 0 0 0 0 0 0 0 0 0 0 0 0 0 0 0 0 0 127 0" result="hardAlpha"/>
<feOffset dy="4"/>
<feGaussianBlur stdDeviation="2"/>
<feComposite in2="hardAlpha" operator="out"/>
<feColorMatrix type="matrix" values="0 0 0 0 0 0 0 0 0 0 0 0 0 0 0 0 0 0 0.08 0"/>
<feBlend mode="normal" in2="BackgroundImageFix" result="effect1_dropShadow_1422_8404"/>
<feBlend mode="normal" in="SourceGraphic" in2="effect1_dropShadow_1422_8404" result="shape"/>
</filter>
<linearGradient id="paint0_linear_1422_8404" x1="220.168" y1="56.6967" x2="394.99" y2="709.978" gradientUnits="userSpaceOnUse">
<stop stop-color="#E9E2D7" stop-opacity="0.49"/>
<stop offset="0.341058" stop-color="#E9E2D7" stop-opacity="0.74"/>
<stop offset="0.481334" stop-color="#BFDB85"/>
<stop offset="0.535923" stop-color="#BCDA7E"/>
<stop offset="0.558875" stop-color="#A7BC95"/>
<stop offset="0.586169" stop-color="#8286BF"/>
<stop offset="0.611602" stop-color="#6359E2"/>
<stop offset="0.628972" stop-color="#6359E2"/>
<stop offset="0.661179" stop-color="#6257E2"/>
<stop offset="0.690089" stop-color="#4E90B8"/>
<stop offset="0.714091" stop-color="#43B0A0"/>
<stop offset="0.747941" stop-color="#3CC690"/>
<stop offset="0.826133" stop-color="#2AC28B"/>
<stop offset="0.939633" stop-color="#E9E2D7" stop-opacity="0.78"/>
</linearGradient>
<radialGradient id="paint1_radial_1422_8404" cx="0" cy="0" r="1" gradientUnits="userSpaceOnUse" gradientTransform="translate(402.426 595.787) rotate(170.321) scale(83.8926 26.4855)">
<stop stop-color="#1BAB77" stop-opacity="0.8"/>
<stop offset="0.447917" stop-color="#21AE7B" stop-opacity="0.441667"/>
<stop offset="1" stop-color="#28B180" stop-opacity="0"/>
</radialGradient>
<linearGradient id="paint2_linear_1422_8404" x1="538.796" y1="464.293" x2="140.867" y2="570.781" gradientUnits="userSpaceOnUse">
<stop/>
<stop offset="1" stop-color="#4D98B3" stop-opacity="0"/>
</linearGradient>
<radialGradient id="paint3_radial_1422_8404" cx="0" cy="0" r="1" gradientUnits="userSpaceOnUse" gradientTransform="translate(263.169 355.021) rotate(74.9039) scale(751.467 1495.23)">
<stop stop-color="#F4F4F4"/>
<stop offset="0.153813" stop-color="#F4F4F4" stop-opacity="0.916823"/>
<stop offset="1" stop-color="#F4F4F4" stop-opacity="0"/>
</radialGradient>
</defs>
</svg>
